<?xml version="1.0" encoding="UTF-8" standalone="no"?>
<!DOCTYPE svg PUBLIC "-//W3C//DTD SVG 1.1//EN" "http://www.w3.org/Graphics/SVG/1.1/DTD/svg11.dtd">
<svg width="100%" height="100%" viewBox="0 0 20 15" version="1.1" xmlns="http://www.w3.org/2000/svg" xmlns:xlink="http://www.w3.org/1999/xlink" xml:space="preserve" xmlns:serif="http://www.serif.com/" style="fill-rule:evenodd;clip-rule:evenodd;stroke-linejoin:round;stroke-miterlimit:2;">
    <g transform="matrix(1,0,0,1,-473.998,-76.5)">
        <g transform="matrix(0.667397,0,0,0.667397,420.059,72.0425)">
            <path d="M109.364,8.26C109.364,7.84 109.197,7.438 108.901,7.142C108.604,6.845 108.202,6.679 107.783,6.679C102.79,6.679 87.393,6.679 82.4,6.679C81.981,6.679 81.579,6.845 81.282,7.142C80.986,7.438 80.819,7.84 80.819,8.26C80.819,12.311 80.819,23.029 80.819,27.08C80.819,27.499 80.986,27.901 81.282,28.197C81.579,28.494 81.981,28.661 82.4,28.661C87.393,28.661 102.79,28.661 107.783,28.661C108.202,28.661 108.604,28.494 108.901,28.197C109.197,27.901 109.364,27.499 109.364,27.08C109.364,23.029 109.364,12.311 109.364,8.26ZM95.338,18.919C95.187,19.006 95.001,19.007 94.85,18.921C93.46,18.119 86.45,14.072 83.502,12.37C82.779,11.952 82.531,11.028 82.949,10.304C82.949,10.304 82.95,10.303 82.95,10.303C83.367,9.58 84.292,9.332 85.015,9.749C85.015,9.749 93.3,14.533 94.845,15.424C94.998,15.513 95.185,15.513 95.338,15.424C96.883,14.533 105.168,9.749 105.168,9.749C105.891,9.332 106.815,9.58 107.233,10.303C107.233,10.303 107.234,10.304 107.234,10.304C107.651,11.028 107.404,11.952 106.681,12.37C106.681,12.37 97.014,17.951 95.338,18.919Z" style="fill:rgb(130,130,130);"/>
        </g>
    </g>
</svg>
