<?xml version="1.0" encoding="UTF-8" standalone="no"?>
<!DOCTYPE svg PUBLIC "-//W3C//DTD SVG 1.1//EN" "http://www.w3.org/Graphics/SVG/1.1/DTD/svg11.dtd">
<svg width="100%" height="100%" viewBox="0 0 18 18" version="1.1" xmlns="http://www.w3.org/2000/svg" xmlns:xlink="http://www.w3.org/1999/xlink" xml:space="preserve" xmlns:serif="http://www.serif.com/" style="fill-rule:evenodd;clip-rule:evenodd;stroke-linejoin:round;stroke-miterlimit:2;">
    <g transform="matrix(1,0,0,1,-386.791,-128.611)">
        <g transform="matrix(1,0,0,1,383.791,125.611)">
            <path d="M6.54,5C6.6,5.89 6.75,6.76 6.99,7.59L5.79,8.79C5.38,7.59 5.12,6.32 5.03,5L6.54,5M16.4,17.02C17.25,17.26 18.12,17.41 19,17.47L19,18.96C17.68,18.87 16.41,18.61 15.2,18.21L16.4,17.02M7.5,3L4,3C3.45,3 3,3.45 3,4C3,13.39 10.61,21 20,21C20.55,21 21,20.55 21,20L21,16.51C21,15.96 20.55,15.51 20,15.51C18.76,15.51 17.55,15.31 16.43,14.94C16.33,14.9 16.22,14.89 16.12,14.89C15.86,14.89 15.61,14.99 15.41,15.18L13.21,17.38C10.38,15.93 8.06,13.62 6.62,10.79L8.82,8.59C9.1,8.31 9.18,7.92 9.07,7.57C8.7,6.45 8.5,5.25 8.5,4C8.5,3.45 8.05,3 7.5,3Z" style="fill:rgb(130,130,130);fill-rule:nonzero;"/>
            <rect x="4.528" y="4.528" width="2.765" height="4.327" style="fill:rgb(130,130,130);"/>
            <g transform="matrix(1.07767,0,0,1,-1.50931,0)">
                <rect x="15.306" y="16.307" width="4.127" height="2.925" style="fill:rgb(130,130,130);"/>
            </g>
        </g>
    </g>
</svg>
